STARTFONT 2.1
FONT -FontForge-Sofia-Regular-R-Normal--14-100-100-100-P-77-ISO10646-1
SIZE 10 100 100
FONTBOUNDINGBOX 22 22 -3 -6
COMMENT "Generated by fontforge, http://fontforge.sourceforge.net"
COMMENT "Copyright (c) 2011 by LatinoType Limitada (info@latinotype.com),  with Reserved Font Names "Sofia""
STARTPROPERTIES 39
FOUNDRY "FontForge"
FAMILY_NAME "Sofia"
WEIGHT_NAME "Regular"
SLANT "R"
SETWIDTH_NAME "Normal"
ADD_STYLE_NAME ""
PIXEL_SIZE 14
POINT_SIZE 100
RESOLUTION_X 100
RESOLUTION_Y 100
SPACING "P"
AVERAGE_WIDTH 77
CHARSET_REGISTRY "ISO10646"
CHARSET_ENCODING "1"
FONTNAME_REGISTRY ""
CHARSET_COLLECTIONS "ISO10646-1"
FONT_NAME "Sofia-Regular"
FACE_NAME "Sofia"
COPYRIGHT "Copyright (c) 2011 by LatinoType Limitada (info@latinotype.com),  with Reserved Font Names "Sofia""
FONT_VERSION "001.001"
FONT_ASCENT 11
FONT_DESCENT 3
UNDERLINE_POSITION -1
UNDERLINE_THICKNESS 1
X_HEIGHT 5
CAP_HEIGHT 9
RAW_ASCENT 800
RAW_DESCENT 200
NORM_SPACE 5
RELATIVE_WEIGHT 40
RELATIVE_SETWIDTH 50
SUPERSCRIPT_X 0
SUPERSCRIPT_Y 6
SUPERSCRIPT_SIZE 9
SUBSCRIPT_X 0
SUBSCRIPT_Y 1
SUBSCRIPT_SIZE 9
AVG_LOWERCASE_WIDTH 68
AVG_UPPERCASE_WIDTH 101
ENDPROPERTIES
CHARS 231
STARTCHAR space
ENCODING 32
SWIDTH 354 0
DWIDTH 5 0
BBX 1 1 0 0
BITMAP
00
ENDCHAR
STARTCHAR exclam
ENCODING 33
SWIDTH 205 0
DWIDTH 3 0
BBX 1 10 1 0
BITMAP
80
80
80
80
80
80
80
00
80
80
ENDCHAR
STARTCHAR quotedbl
ENCODING 34
SWIDTH 350 0
DWIDTH 5 0
BBX 3 3 1 7
BITMAP
A0
A0
A0
ENDCHAR
STARTCHAR numbersign
ENCODING 35
SWIDTH 833 0
DWIDTH 12 0
BBX 8 9 0 0
BITMAP
12
12
FF
24
24
24
7F
48
48
ENDCHAR
STARTCHAR dollar
ENCODING 36
SWIDTH 593 0
DWIDTH 8 0
BBX 8 16 0 -3
BITMAP
08
08
08
76
42
42
60
38
0E
03
83
C3
42
3C
08
08
ENDCHAR
STARTCHAR percent
ENCODING 37
SWIDTH 937 0
DWIDTH 13 0
BBX 12 11 0 0
BITMAP
7080
4880
C900
4900
3200
0200
04E0
0530
0910
0930
10E0
ENDCHAR
STARTCHAR ampersand
ENCODING 38
SWIDTH 827 0
DWIDTH 12 0
BBX 10 11 0 -1
BITMAP
3800
2400
6400
2400
3800
7000
DA00
8E00
8600
47C0
3800
ENDCHAR
STARTCHAR quotesingle
ENCODING 39
SWIDTH 165 0
DWIDTH 2 0
BBX 1 3 1 7
BITMAP
80
80
80
ENDCHAR
STARTCHAR parenleft
ENCODING 40
SWIDTH 383 0
DWIDTH 5 0
BBX 5 14 0 -3
BITMAP
18
20
40
40
C0
C0
80
80
C0
C0
40
60
20
18
ENDCHAR
STARTCHAR parenright
ENCODING 41
SWIDTH 356 0
DWIDTH 5 0
BBX 5 14 0 -3
BITMAP
C0
20
10
10
18
18
08
18
18
10
10
30
20
C0
ENDCHAR
STARTCHAR asterisk
ENCODING 42
SWIDTH 577 0
DWIDTH 8 0
BBX 6 5 0 7
BITMAP
28
30
FC
30
58
ENDCHAR
STARTCHAR plus
ENCODING 43
SWIDTH 486 0
DWIDTH 7 0
BBX 6 5 0 1
BITMAP
10
10
FC
10
10
ENDCHAR
STARTCHAR comma
ENCODING 44
SWIDTH 181 0
DWIDTH 3 0
BBX 1 2 1 -1
BITMAP
80
80
ENDCHAR
STARTCHAR hyphen
ENCODING 45
SWIDTH 440 0
DWIDTH 6 0
BBX 6 1 0 3
BITMAP
FC
ENDCHAR
STARTCHAR period
ENCODING 46
SWIDTH 120 0
DWIDTH 2 0
BBX 1 1 0 0
BITMAP
80
ENDCHAR
STARTCHAR slash
ENCODING 47
SWIDTH 377 0
DWIDTH 5 0
BBX 6 11 0 0
BITMAP
04
04
08
08
10
10
20
20
40
40
80
ENDCHAR
STARTCHAR zero
ENCODING 48
SWIDTH 865 0
DWIDTH 12 0
BBX 9 10 1 0
BITMAP
1E00
2100
4080
4080
C080
C080
4080
4080
2100
1E00
ENDCHAR
STARTCHAR one
ENCODING 49
SWIDTH 476 0
DWIDTH 7 0
BBX 6 10 0 0
BITMAP
10
70
90
10
10
10
10
10
10
FC
ENDCHAR
STARTCHAR two
ENCODING 50
SWIDTH 833 0
DWIDTH 12 0
BBX 9 10 1 0
BITMAP
3C00
4200
4300
4100
0300
0200
0400
4C80
B080
FF80
ENDCHAR
STARTCHAR three
ENCODING 51
SWIDTH 595 0
DWIDTH 8 0
BBX 8 11 0 -1
BITMAP
3C
42
82
02
1C
06
02
03
03
82
7C
ENDCHAR
STARTCHAR four
ENCODING 52
SWIDTH 833 0
DWIDTH 12 0
BBX 9 10 1 0
BITMAP
0200
2200
2200
2200
2200
2200
7A80
8780
0200
0F80
ENDCHAR
STARTCHAR five
ENCODING 53
SWIDTH 631 0
DWIDTH 9 0
BBX 7 11 0 -1
BITMAP
C2
7C
40
40
58
26
02
02
02
86
7C
ENDCHAR
STARTCHAR six
ENCODING 54
SWIDTH 640 0
DWIDTH 9 0
BBX 7 12 1 -1
BITMAP
02
1C
20
40
C0
BC
C4
82
82
82
44
38
ENDCHAR
STARTCHAR seven
ENCODING 55
SWIDTH 833 0
DWIDTH 12 0
BBX 10 11 0 -1
BITMAP
7840
C7C0
C300
0200
0600
0400
0C00
0C00
0800
0800
0800
ENDCHAR
STARTCHAR eight
ENCODING 56
SWIDTH 628 0
DWIDTH 9 0
BBX 8 12 0 -1
BITMAP
18
66
C3
C3
42
3E
43
81
81
C1
42
3C
ENDCHAR
STARTCHAR nine
ENCODING 57
SWIDTH 633 0
DWIDTH 9 0
BBX 7 11 1 -1
BITMAP
78
C4
82
82
82
C6
3E
04
08
10
E0
ENDCHAR
STARTCHAR colon
ENCODING 58
SWIDTH 157 0
DWIDTH 2 0
BBX 1 6 0 0
BITMAP
80
00
00
00
00
80
ENDCHAR
STARTCHAR semicolon
ENCODING 59
SWIDTH 181 0
DWIDTH 3 0
BBX 2 7 0 -1
BITMAP
80
00
00
00
00
C0
40
ENDCHAR
STARTCHAR less
ENCODING 60
SWIDTH 411 0
DWIDTH 6 0
BBX 4 7 1 1
BITMAP
10
20
C0
80
C0
20
10
ENDCHAR
STARTCHAR equal
ENCODING 61
SWIDTH 670 0
DWIDTH 9 0
BBX 6 3 2 3
BITMAP
FC
00
FC
ENDCHAR
STARTCHAR greater
ENCODING 62
SWIDTH 390 0
DWIDTH 5 0
BBX 4 7 1 1
BITMAP
80
C0
60
10
60
C0
80
ENDCHAR
STARTCHAR question
ENCODING 63
SWIDTH 833 0
DWIDTH 12 0
BBX 6 11 2 0
BITMAP
30
CC
84
84
04
08
10
20
20
00
20
ENDCHAR
STARTCHAR at
ENCODING 64
SWIDTH 735 0
DWIDTH 10 0
BBX 9 9 1 -1
BITMAP
0800
7600
9500
AD00
A480
A500
BD00
8200
7000
ENDCHAR
STARTCHAR A
ENCODING 65
SWIDTH 870 0
DWIDTH 12 0
BBX 12 14 -1 -2
BITMAP
0300
0100
0100
0380
0280
0280
0480
04C0
0440
3FF0
4860
8820
9020
6000
ENDCHAR
STARTCHAR B
ENCODING 66
SWIDTH 761 0
DWIDTH 11 0
BBX 10 13 -1 -1
BITMAP
1000
1C00
7380
5080
5080
1080
1700
1080
10C0
1040
90C0
5180
3F00
ENDCHAR
STARTCHAR C
ENCODING 67
SWIDTH 659 0
DWIDTH 9 0
BBX 9 11 1 -1
BITMAP
3E00
6200
C200
8000
8000
8000
8000
C080
4080
2100
1E00
ENDCHAR
STARTCHAR D
ENCODING 68
SWIDTH 711 0
DWIDTH 10 0
BBX 10 13 -1 -1
BITMAP
1000
1000
7E00
5180
1080
1040
1040
1040
1040
10C0
9080
5180
3E00
ENDCHAR
STARTCHAR E
ENCODING 69
SWIDTH 529 0
DWIDTH 7 0
BBX 9 12 -1 -1
BITMAP
3C00
6200
4200
4000
6000
3C00
6000
4080
C080
4100
6100
1E00
ENDCHAR
STARTCHAR F
ENCODING 70
SWIDTH 617 0
DWIDTH 9 0
BBX 8 12 2 -2
BITMAP
FF
60
60
60
FC
60
60
60
E0
E0
E0
C0
ENDCHAR
STARTCHAR G
ENCODING 71
SWIDTH 590 0
DWIDTH 8 0
BBX 8 16 -1 -6
BITMAP
1E
21
41
40
40
C0
40
41
61
31
0F
03
05
09
05
02
ENDCHAR
STARTCHAR H
ENCODING 72
SWIDTH 875 0
DWIDTH 12 0
BBX 11 13 1 -2
BITMAP
0080
3080
3080
3080
3080
3080
3080
3080
7FE0
B080
A080
A080
4000
ENDCHAR
STARTCHAR I
ENCODING 73
SWIDTH 454 0
DWIDTH 6 0
BBX 4 10 1 0
BITMAP
F0
60
60
60
60
60
60
60
60
F0
ENDCHAR
STARTCHAR J
ENCODING 74
SWIDTH 490 0
DWIDTH 7 0
BBX 5 12 0 -2
BITMAP
78
30
30
30
30
30
70
B0
B0
B0
A0
E0
ENDCHAR
STARTCHAR K
ENCODING 75
SWIDTH 756 0
DWIDTH 11 0
BBX 13 14 -1 -3
BITMAP
1000
10C0
1080
1080
1080
1100
1600
1100
1080
9080
9040
E060
0020
0018
ENDCHAR
STARTCHAR L
ENCODING 76
SWIDTH 500 0
DWIDTH 7 0
BBX 11 13 -3 -1
BITMAP
0E00
1A00
1200
3C00
1000
1000
1000
1000
1000
7020
9820
9C40
6380
ENDCHAR
STARTCHAR M
ENCODING 77
SWIDTH 1324 0
DWIDTH 19 0
BBX 19 11 0 -1
BITMAP
738E00
4C5300
8C6100
086100
086100
086100
086100
086120
486120
4860C0
700000
ENDCHAR
STARTCHAR N
ENCODING 78
SWIDTH 942 0
DWIDTH 13 0
BBX 14 11 0 -1
BITMAP
7380
4C40
8C60
0860
0860
0860
0860
0864
4824
4838
7000
ENDCHAR
STARTCHAR O
ENCODING 79
SWIDTH 813 0
DWIDTH 11 0
BBX 10 12 0 -1
BITMAP
0E00
3100
5880
A0C0
6040
4040
4040
6040
6040
2080
1180
0E00
ENDCHAR
STARTCHAR P
ENCODING 80
SWIDTH 653 0
DWIDTH 9 0
BBX 9 13 0 -2
BITMAP
3000
3E00
F100
B180
3080
3180
3100
3E00
3000
7000
B000
A000
6000
ENDCHAR
STARTCHAR Q
ENCODING 81
SWIDTH 775 0
DWIDTH 11 0
BBX 11 13 0 -2
BITMAP
1000
2000
4E00
D100
A100
A180
A180
A180
D120
5320
3C20
0440
0380
ENDCHAR
STARTCHAR R
ENCODING 82
SWIDTH 677 0
DWIDTH 9 0
BBX 13 14 -1 -3
BITMAP
1E00
6100
D080
9080
1080
1080
1300
1100
1080
9080
9040
E040
0020
0018
ENDCHAR
STARTCHAR S
ENCODING 83
SWIDTH 593 0
DWIDTH 8 0
BBX 8 11 0 -1
BITMAP
3E
42
42
60
3C
0E
03
83
C3
42
3C
ENDCHAR
STARTCHAR T
ENCODING 84
SWIDTH 625 0
DWIDTH 9 0
BBX 13 14 -1 -1
BITMAP
0010
C008
BC08
E3F0
0200
0200
0200
0200
0200
0200
0200
1200
1200
1C00
ENDCHAR
STARTCHAR U
ENCODING 85
SWIDTH 753 0
DWIDTH 11 0
BBX 13 11 -2 -1
BITMAP
F040
9840
9840
1840
1840
1840
1840
1848
08C8
08B0
0700
ENDCHAR
STARTCHAR V
ENCODING 86
SWIDTH 811 0
DWIDTH 11 0
BBX 11 11 0 -1
BITMAP
71C0
9240
9940
18E0
1840
1840
1840
0840
0880
0880
0700
ENDCHAR
STARTCHAR W
ENCODING 87
SWIDTH 1140 0
DWIDTH 16 0
BBX 17 11 -1 -1
BITMAP
704600
904900
904500
904380
104100
10C100
10C100
10C300
18C200
092600
061800
ENDCHAR
STARTCHAR X
ENCODING 88
SWIDTH 744 0
DWIDTH 10 0
BBX 12 10 -1 0
BITMAP
F060
8880
8D00
0600
0600
0600
0600
0B10
0910
30E0
ENDCHAR
STARTCHAR Y
ENCODING 89
SWIDTH 670 0
DWIDTH 9 0
BBX 7 16 1 -6
BITMAP
82
82
82
82
82
82
82
82
46
3A
0E
12
22
22
12
0C
ENDCHAR
STARTCHAR Z
ENCODING 90
SWIDTH 833 0
DWIDTH 12 0
BBX 11 12 0 -1
BITMAP
3800
46C0
4100
0100
0200
0200
0400
0420
6820
9820
6C20
03C0
ENDCHAR
STARTCHAR bracketleft
ENCODING 91
SWIDTH 365 0
DWIDTH 5 0
BBX 3 17 1 -5
BITMAP
E0
80
80
80
80
80
80
80
80
80
80
80
80
80
80
80
E0
ENDCHAR
STARTCHAR backslash
ENCODING 92
SWIDTH 383 0
DWIDTH 5 0
BBX 6 11 0 0
BITMAP
80
40
40
20
20
30
10
18
08
0C
04
ENDCHAR
STARTCHAR bracketright
ENCODING 93
SWIDTH 342 0
DWIDTH 5 0
BBX 3 17 1 -5
BITMAP
E0
20
20
20
20
20
20
20
20
20
20
20
20
20
20
20
E0
ENDCHAR
STARTCHAR asciicircum
ENCODING 94
SWIDTH 460 0
DWIDTH 6 0
BBX 6 5 0 5
BITMAP
10
38
68
44
84
ENDCHAR
STARTCHAR underscore
ENCODING 95
SWIDTH 611 0
DWIDTH 9 0
BBX 8 1 0 0
BITMAP
FF
ENDCHAR
STARTCHAR grave
ENCODING 96
SWIDTH 228 0
DWIDTH 3 0
BBX 3 4 0 7
BITMAP
80
C0
40
60
ENDCHAR
STARTCHAR a
ENCODING 97
SWIDTH 544 0
DWIDTH 8 0
BBX 8 7 0 0
BITMAP
20
58
88
88
89
C9
76
ENDCHAR
STARTCHAR b
ENCODING 98
SWIDTH 453 0
DWIDTH 6 0
BBX 5 12 0 0
BITMAP
60
A0
A0
C0
C0
A0
D8
88
88
88
88
70
ENDCHAR
STARTCHAR c
ENCODING 99
SWIDTH 405 0
DWIDTH 6 0
BBX 6 6 0 0
BITMAP
70
90
80
84
C4
78
ENDCHAR
STARTCHAR d
ENCODING 100
SWIDTH 542 0
DWIDTH 8 0
BBX 8 12 0 0
BITMAP
06
0A
0A
0A
0C
28
58
88
88
88
C9
76
ENDCHAR
STARTCHAR e
ENCODING 101
SWIDTH 407 0
DWIDTH 6 0
BBX 6 7 0 0
BITMAP
20
50
90
90
E4
C4
78
ENDCHAR
STARTCHAR f
ENCODING 102
SWIDTH 280 0
DWIDTH 4 0
BBX 3 18 0 -6
BITMAP
60
A0
A0
A0
C0
C0
80
80
80
80
80
80
80
80
80
80
80
80
ENDCHAR
STARTCHAR g
ENCODING 103
SWIDTH 477 0
DWIDTH 7 0
BBX 6 13 0 -6
BITMAP
20
58
88
88
88
C8
78
08
1C
28
48
48
30
ENDCHAR
STARTCHAR h
ENCODING 104
SWIDTH 528 0
DWIDTH 7 0
BBX 8 12 0 0
BITMAP
60
A0
A0
C0
C0
80
F8
88
88
89
89
86
ENDCHAR
STARTCHAR i
ENCODING 105
SWIDTH 281 0
DWIDTH 4 0
BBX 4 9 0 0
BITMAP
80
80
00
80
80
80
90
90
70
ENDCHAR
STARTCHAR j
ENCODING 106
SWIDTH 198 0
DWIDTH 3 0
BBX 4 16 -2 -6
BITMAP
20
20
00
00
20
20
20
20
20
20
20
20
70
A0
A0
C0
ENDCHAR
STARTCHAR k
ENCODING 107
SWIDTH 521 0
DWIDTH 7 0
BBX 8 12 0 0
BITMAP
60
A0
A0
C0
C0
80
F8
C8
88
B1
C9
8E
ENDCHAR
STARTCHAR l
ENCODING 108
SWIDTH 279 0
DWIDTH 4 0
BBX 4 12 0 0
BITMAP
60
A0
A0
A0
C0
C0
80
80
80
90
90
70
ENDCHAR
STARTCHAR m
ENCODING 109
SWIDTH 765 0
DWIDTH 11 0
BBX 11 6 0 0
BITMAP
FF00
8900
8900
8920
8920
88C0
ENDCHAR
STARTCHAR n
ENCODING 110
SWIDTH 528 0
DWIDTH 7 0
BBX 8 6 0 0
BITMAP
F8
88
88
89
89
8E
ENDCHAR
STARTCHAR o
ENCODING 111
SWIDTH 472 0
DWIDTH 7 0
BBX 6 7 0 0
BITMAP
20
58
C8
AC
9C
C8
70
ENDCHAR
STARTCHAR p
ENCODING 112
SWIDTH 549 0
DWIDTH 8 0
BBX 9 13 0 -6
BITMAP
9000
EF80
9C00
A400
A400
AC00
B800
8000
8000
8000
8000
8000
8000
ENDCHAR
STARTCHAR q
ENCODING 113
SWIDTH 505 0
DWIDTH 7 0
BBX 5 13 0 -6
BITMAP
20
58
88
88
88
88
78
08
08
08
08
08
08
ENDCHAR
STARTCHAR r
ENCODING 114
SWIDTH 389 0
DWIDTH 5 0
BBX 5 6 0 0
BITMAP
B8
C8
80
80
80
80
ENDCHAR
STARTCHAR s
ENCODING 115
SWIDTH 428 0
DWIDTH 6 0
BBX 6 6 -1 0
BITMAP
78
64
38
8C
44
38
ENDCHAR
STARTCHAR t
ENCODING 116
SWIDTH 316 0
DWIDTH 4 0
BBX 5 8 0 0
BITMAP
80
80
F0
80
80
88
88
70
ENDCHAR
STARTCHAR u
ENCODING 117
SWIDTH 527 0
DWIDTH 7 0
BBX 8 6 0 0
BITMAP
88
88
88
89
99
6E
ENDCHAR
STARTCHAR v
ENCODING 118
SWIDTH 505 0
DWIDTH 7 0
BBX 8 7 0 0
BITMAP
98
A8
A8
AA
A9
9A
7E
ENDCHAR
STARTCHAR w
ENCODING 119
SWIDTH 771 0
DWIDTH 11 0
BBX 11 7 0 0
BITMAP
8B80
8A80
8A80
8AA0
8AA0
9B20
67C0
ENDCHAR
STARTCHAR x
ENCODING 120
SWIDTH 515 0
DWIDTH 7 0
BBX 8 6 0 0
BITMAP
6C
30
30
31
39
CE
ENDCHAR
STARTCHAR y
ENCODING 121
SWIDTH 487 0
DWIDTH 7 0
BBX 6 12 0 -6
BITMAP
88
88
88
88
98
68
08
1C
28
48
48
70
ENDCHAR
STARTCHAR z
ENCODING 122
SWIDTH 456 0
DWIDTH 6 0
BBX 7 12 0 -6
BITMAP
FC
88
88
10
10
30
08
3E
48
88
88
70
ENDCHAR
STARTCHAR braceleft
ENCODING 123
SWIDTH 357 0
DWIDTH 5 0
BBX 4 16 0 -5
BITMAP
30
40
40
40
40
40
40
C0
40
40
40
40
40
40
60
30
ENDCHAR
STARTCHAR bar
ENCODING 124
SWIDTH 140 0
DWIDTH 2 0
BBX 1 17 0 -6
BITMAP
80
80
80
80
80
80
80
80
80
80
80
80
80
80
80
80
80
ENDCHAR
STARTCHAR braceright
ENCODING 125
SWIDTH 372 0
DWIDTH 5 0
BBX 4 16 0 -5
BITMAP
C0
20
20
20
20
20
20
30
20
20
20
20
20
20
20
C0
ENDCHAR
STARTCHAR asciitilde
ENCODING 126
SWIDTH 523 0
DWIDTH 7 0
BBX 7 3 0 2
BITMAP
62
92
8C
ENDCHAR
STARTCHAR exclamdown
ENCODING 161
SWIDTH 205 0
DWIDTH 3 0
BBX 1 11 1 -4
BITMAP
80
80
00
80
80
80
80
80
80
80
80
ENDCHAR
STARTCHAR cent
ENCODING 162
SWIDTH 405 0
DWIDTH 6 0
BBX 5 10 0 -2
BITMAP
20
20
78
A8
A0
A0
A8
70
20
20
ENDCHAR
STARTCHAR sterling
ENCODING 163
SWIDTH 736 0
DWIDTH 10 0
BBX 10 13 0 -1
BITMAP
1C00
1000
1000
1000
1000
1000
7800
1000
1000
F040
B040
A880
4700
ENDCHAR
STARTCHAR currency
ENCODING 164
SWIDTH 833 0
DWIDTH 12 0
BBX 7 7 1 1
BITMAP
7C
44
42
C2
42
7C
7C
ENDCHAR
STARTCHAR yen
ENCODING 165
SWIDTH 670 0
DWIDTH 9 0
BBX 7 10 1 0
BITMAP
84
C4
4C
28
FC
10
FE
10
10
10
ENDCHAR
STARTCHAR brokenbar
ENCODING 166
SWIDTH 141 0
DWIDTH 2 0
BBX 1 16 1 -5
BITMAP
80
80
80
80
80
80
80
00
00
80
80
80
80
80
80
80
ENDCHAR
STARTCHAR section
ENCODING 167
SWIDTH 642 0
DWIDTH 9 0
BBX 8 15 0 -5
BITMAP
3E
42
42
60
78
4E
43
63
3F
06
03
83
C3
42
3C
ENDCHAR
STARTCHAR dieresis
ENCODING 168
SWIDTH 393 0
DWIDTH 6 0
BBX 4 1 1 8
BITMAP
F0
ENDCHAR
STARTCHAR copyright
ENCODING 169
SWIDTH 610 0
DWIDTH 9 0
BBX 8 8 0 1
BITMAP
3C
42
5D
A5
A1
B5
4A
3C
ENDCHAR
STARTCHAR ordfeminine
ENCODING 170
SWIDTH 544 0
DWIDTH 8 0
BBX 4 5 2 4
BITMAP
70
90
90
90
60
ENDCHAR
STARTCHAR guillemotleft
ENCODING 171
SWIDTH 833 0
DWIDTH 12 0
BBX 8 7 1 0
BITMAP
09
32
64
C8
64
32
09
ENDCHAR
STARTCHAR logicalnot
ENCODING 172
SWIDTH 537 0
DWIDTH 8 0
BBX 7 3 0 3
BITMAP
FE
02
02
ENDCHAR
STARTCHAR uni00AD
ENCODING 173
SWIDTH 443 0
DWIDTH 6 0
BBX 4 1 1 3
BITMAP
F0
ENDCHAR
STARTCHAR registered
ENCODING 174
SWIDTH 616 0
DWIDTH 9 0
BBX 8 8 0 1
BITMAP
3C
4A
B5
9D
95
77
42
3C
ENDCHAR
STARTCHAR degree
ENCODING 176
SWIDTH 420 0
DWIDTH 6 0
BBX 4 4 1 7
BITMAP
60
90
90
60
ENDCHAR
STARTCHAR plusminus
ENCODING 177
SWIDTH 452 0
DWIDTH 6 0
BBX 6 7 0 0
BITMAP
10
10
FC
10
10
00
FC
ENDCHAR
STARTCHAR twosuperior
ENCODING 178
SWIDTH 376 0
DWIDTH 5 0
BBX 5 5 0 6
BITMAP
70
50
10
E8
F8
ENDCHAR
STARTCHAR threesuperior
ENCODING 179
SWIDTH 360 0
DWIDTH 5 0
BBX 4 6 1 6
BITMAP
E0
A0
20
60
30
E0
ENDCHAR
STARTCHAR acute
ENCODING 180
SWIDTH 217 0
DWIDTH 3 0
BBX 3 4 0 7
BITMAP
60
40
C0
80
ENDCHAR
STARTCHAR mu
ENCODING 181
SWIDTH 493 0
DWIDTH 7 0
BBX 5 12 1 -6
BITMAP
88
88
88
88
98
E8
80
80
80
80
80
80
ENDCHAR
STARTCHAR paragraph
ENCODING 182
SWIDTH 833 0
DWIDTH 12 0
BBX 9 11 1 0
BITMAP
0600
7E00
CF80
8E80
8E00
8E00
7E00
0E00
0E00
0E00
0E00
ENDCHAR
STARTCHAR periodcentered
ENCODING 183
SWIDTH 170 0
DWIDTH 2 0
BBX 1 1 0 4
BITMAP
80
ENDCHAR
STARTCHAR cedilla
ENCODING 184
SWIDTH 223 0
DWIDTH 3 0
BBX 3 3 0 -3
BITMAP
40
20
C0
ENDCHAR
STARTCHAR onesuperior
ENCODING 185
SWIDTH 400 0
DWIDTH 6 0
BBX 3 5 1 6
BITMAP
40
C0
40
40
E0
ENDCHAR
STARTCHAR ordmasculine
ENCODING 186
SWIDTH 346 0
DWIDTH 5 0
BBX 4 5 1 4
BITMAP
E0
B0
B0
A0
40
ENDCHAR
STARTCHAR guillemotright
ENCODING 187
SWIDTH 546 0
DWIDTH 8 0
BBX 8 7 1 0
BITMAP
88
6C
32
19
32
6C
88
ENDCHAR
STARTCHAR onequarter
ENCODING 188
SWIDTH 1004 0
DWIDTH 14 0
BBX 11 11 1 0
BITMAP
6180
E100
6300
6200
F600
0400
0CE0
08E0
0960
11E0
1060
ENDCHAR
STARTCHAR onehalf
ENCODING 189
SWIDTH 1018 0
DWIDTH 14 0
BBX 11 11 1 0
BITMAP
6180
E100
6300
6200
F600
0400
0DC0
0940
1840
1060
33E0
ENDCHAR
STARTCHAR threequarters
ENCODING 190
SWIDTH 1026 0
DWIDTH 14 0
BBX 11 12 1 0
BITMAP
6080
9100
1100
6200
9200
E400
0400
08E0
08E0
1960
11E0
1060
ENDCHAR
STARTCHAR questiondown
ENCODING 191
SWIDTH 833 0
DWIDTH 12 0
BBX 6 11 2 -5
BITMAP
10
00
10
10
20
40
80
84
84
CC
30
ENDCHAR
STARTCHAR Agrave
ENCODING 192
SWIDTH 870 0
DWIDTH 12 0
BBX 12 18 -1 -2
BITMAP
0400
0200
0200
0100
0000
0300
0100
0100
0280
0280
0680
04C0
0440
3FF0
4860
8820
9020
6000
ENDCHAR
STARTCHAR Aacute
ENCODING 193
SWIDTH 870 0
DWIDTH 12 0
BBX 12 18 -1 -2
BITMAP
0080
0080
0100
0100
0000
0300
0100
0100
0280
0280
0680
04C0
0440
3FF0
4860
8820
9020
6000
ENDCHAR
STARTCHAR Acircumflex
ENCODING 194
SWIDTH 870 0
DWIDTH 12 0
BBX 12 17 -1 -2
BITMAP
0300
0380
0480
0000
0300
0100
0100
0280
0280
0680
04C0
0440
3FF0
4860
8820
9020
6000
ENDCHAR
STARTCHAR Atilde
ENCODING 195
SWIDTH 870 0
DWIDTH 12 0
BBX 12 16 -1 -2
BITMAP
0680
0980
0300
0100
0100
0380
0280
0280
0480
04C0
0440
3FF0
4860
8820
9020
6000
ENDCHAR
STARTCHAR Adieresis
ENCODING 196
SWIDTH 870 0
DWIDTH 12 0
BBX 12 15 -1 -2
BITMAP
0780
0000
0300
0100
0100
0280
0280
0680
04C0
0440
3FF0
4860
8820
9020
6000
ENDCHAR
STARTCHAR Aring
ENCODING 197
SWIDTH 870 0
DWIDTH 12 0
BBX 12 17 -1 -2
BITMAP
0300
0480
0300
0000
0300
0100
0100
0280
0280
0680
04C0
0440
3FF0
4860
8820
9020
6000
ENDCHAR
STARTCHAR AE
ENCODING 198
SWIDTH 1149 0
DWIDTH 16 0
BBX 18 14 -1 -2
BITMAP
030000
011E00
013100
03A100
02A000
02B000
049C00
04F000
046040
3FC040
486080
882180
901E00
600000
ENDCHAR
STARTCHAR Ccedilla
ENCODING 199
SWIDTH 659 0
DWIDTH 9 0
BBX 9 14 1 -4
BITMAP
3E00
6200
C200
8000
8000
8000
8000
C080
4080
2100
1E00
0400
0400
0C00
ENDCHAR
STARTCHAR Egrave
ENCODING 200
SWIDTH 529 0
DWIDTH 7 0
BBX 9 16 -1 -1
BITMAP
2000
1000
1000
0800
3C00
6200
4200
4000
6000
3C00
6000
4080
C080
4100
6100
1E00
ENDCHAR
STARTCHAR Eacute
ENCODING 201
SWIDTH 529 0
DWIDTH 7 0
BBX 9 16 -1 -1
BITMAP
0200
0400
0400
0800
3C00
6200
4200
4000
6000
3C00
6000
4080
C080
4100
6100
1E00
ENDCHAR
STARTCHAR Ecircumflex
ENCODING 202
SWIDTH 529 0
DWIDTH 7 0
BBX 9 15 -1 -1
BITMAP
0800
1C00
3200
3C00
6200
4200
4000
6000
3C00
6000
4080
C080
4100
6100
1E00
ENDCHAR
STARTCHAR Edieresis
ENCODING 203
SWIDTH 529 0
DWIDTH 7 0
BBX 9 13 -1 -1
BITMAP
1400
3C00
6200
4200
4000
6000
3C00
6000
4080
C080
4100
6100
1E00
ENDCHAR
STARTCHAR Igrave
ENCODING 204
SWIDTH 454 0
DWIDTH 6 0
BBX 4 15 1 0
BITMAP
80
C0
40
60
00
F0
60
60
60
60
60
60
60
60
F0
ENDCHAR
STARTCHAR Iacute
ENCODING 205
SWIDTH 454 0
DWIDTH 6 0
BBX 4 15 1 0
BITMAP
10
30
20
60
00
F0
60
60
60
60
60
60
60
60
F0
ENDCHAR
STARTCHAR Icircumflex
ENCODING 206
SWIDTH 454 0
DWIDTH 6 0
BBX 4 15 1 0
BITMAP
60
60
D0
90
00
F0
60
60
60
60
60
60
60
60
F0
ENDCHAR
STARTCHAR Idieresis
ENCODING 207
SWIDTH 454 0
DWIDTH 6 0
BBX 4 12 1 0
BITMAP
D0
00
F0
60
60
60
60
60
60
60
60
F0
ENDCHAR
STARTCHAR Eth
ENCODING 208
SWIDTH 711 0
DWIDTH 10 0
BBX 10 11 -1 0
BITMAP
1000
1E00
7180
5080
10C0
1040
1E40
1040
90C0
5180
3F00
ENDCHAR
STARTCHAR Ntilde
ENCODING 209
SWIDTH 942 0
DWIDTH 13 0
BBX 14 14 0 -1
BITMAP
0680
0980
0000
7380
4C40
8C60
0860
0860
0860
0860
0864
4824
4838
7000
ENDCHAR
STARTCHAR Ograve
ENCODING 210
SWIDTH 813 0
DWIDTH 11 0
BBX 10 16 0 -1
BITMAP
1800
0800
0400
0000
0E00
3100
5880
A0C0
6040
4040
4040
6040
6040
2080
1180
0E00
ENDCHAR
STARTCHAR Oacute
ENCODING 211
SWIDTH 813 0
DWIDTH 11 0
BBX 10 16 0 -1
BITMAP
0200
0400
0C00
0000
0E00
3100
5880
A0C0
6040
4040
4040
6040
6040
2080
1180
0E00
ENDCHAR
STARTCHAR Ocircumflex
ENCODING 212
SWIDTH 813 0
DWIDTH 11 0
BBX 10 16 0 -1
BITMAP
0C00
1C00
1200
0000
0E00
3100
5880
A0C0
6040
4040
4040
6040
6040
2080
1180
0E00
ENDCHAR
STARTCHAR Otilde
ENCODING 213
SWIDTH 813 0
DWIDTH 11 0
BBX 10 14 0 -1
BITMAP
1D00
2600
0E00
3100
5880
A0C0
6040
4040
4040
6040
6040
2080
1180
0E00
ENDCHAR
STARTCHAR Odieresis
ENCODING 214
SWIDTH 813 0
DWIDTH 11 0
BBX 10 14 0 -1
BITMAP
0A00
0000
0E00
3100
5880
A0C0
6040
4040
4040
6040
6040
2080
1180
0E00
ENDCHAR
STARTCHAR multiply
ENCODING 215
SWIDTH 370 0
DWIDTH 5 0
BBX 5 4 0 2
BITMAP
D8
70
70
58
ENDCHAR
STARTCHAR Oslash
ENCODING 216
SWIDTH 643 0
DWIDTH 9 0
BBX 10 12 -1 -1
BITMAP
1C00
2300
5980
A280
C2C0
4440
4440
48C0
48C0
3080
3100
0E00
ENDCHAR
STARTCHAR Ugrave
ENCODING 217
SWIDTH 753 0
DWIDTH 11 0
BBX 13 16 -2 -1
BITMAP
0C00
0400
0600
0200
0000
F040
9840
9840
1840
1840
1840
1840
1848
08C8
08B0
0700
ENDCHAR
STARTCHAR Uacute
ENCODING 218
SWIDTH 753 0
DWIDTH 11 0
BBX 13 16 -2 -1
BITMAP
0180
0100
0300
0200
0000
F040
9840
9840
1840
1840
1840
1840
1848
08C8
08B0
0700
ENDCHAR
STARTCHAR Ucircumflex
ENCODING 219
SWIDTH 753 0
DWIDTH 11 0
BBX 13 15 -2 -1
BITMAP
0100
0380
04C0
0000
F040
9840
9840
1840
1840
1840
1840
1848
08C8
08B0
0700
ENDCHAR
STARTCHAR Udieresis
ENCODING 220
SWIDTH 753 0
DWIDTH 11 0
BBX 13 13 -2 -1
BITMAP
0D00
0000
F040
9840
9840
1840
1840
1840
1840
1848
08C8
08B0
0700
ENDCHAR
STARTCHAR Yacute
ENCODING 221
SWIDTH 670 0
DWIDTH 9 0
BBX 7 21 1 -6
BITMAP
08
18
10
30
00
82
82
82
82
82
82
82
82
46
3A
0E
12
22
22
12
0C
ENDCHAR
STARTCHAR Thorn
ENCODING 222
SWIDTH 561 0
DWIDTH 8 0
BBX 6 11 1 0
BITMAP
C0
C0
F8
CC
C4
C4
C4
C8
F0
C0
C0
ENDCHAR
STARTCHAR germandbls
ENCODING 223
SWIDTH 696 0
DWIDTH 10 0
BBX 7 13 2 -2
BITMAP
30
CC
84
84
84
B8
84
86
82
A2
A4
98
80
ENDCHAR
STARTCHAR agrave
ENCODING 224
SWIDTH 544 0
DWIDTH 8 0
BBX 8 11 0 0
BITMAP
40
60
20
00
20
58
88
88
89
C9
76
ENDCHAR
STARTCHAR aacute
ENCODING 225
SWIDTH 544 0
DWIDTH 8 0
BBX 8 11 0 0
BITMAP
08
10
30
00
20
58
88
88
89
C9
76
ENDCHAR
STARTCHAR acircumflex
ENCODING 226
SWIDTH 544 0
DWIDTH 8 0
BBX 8 11 0 0
BITMAP
30
70
48
00
20
58
88
88
89
C9
76
ENDCHAR
STARTCHAR atilde
ENCODING 227
SWIDTH 544 0
DWIDTH 8 0
BBX 8 9 0 0
BITMAP
34
4C
20
58
88
88
89
C9
76
ENDCHAR
STARTCHAR adieresis
ENCODING 228
SWIDTH 544 0
DWIDTH 8 0
BBX 8 9 0 0
BITMAP
28
00
20
58
88
88
89
C9
76
ENDCHAR
STARTCHAR aring
ENCODING 229
SWIDTH 544 0
DWIDTH 8 0
BBX 8 11 0 0
BITMAP
10
28
30
00
20
58
88
88
89
C9
76
ENDCHAR
STARTCHAR ae
ENCODING 230
SWIDTH 951 0
DWIDTH 13 0
BBX 10 7 4 0
BITMAP
2A00
DD00
8900
8B00
8C40
9880
E780
ENDCHAR
STARTCHAR ccedilla
ENCODING 231
SWIDTH 405 0
DWIDTH 6 0
BBX 6 9 0 -3
BITMAP
70
90
80
84
C4
78
10
10
30
ENDCHAR
STARTCHAR egrave
ENCODING 232
SWIDTH 407 0
DWIDTH 6 0
BBX 6 11 0 0
BITMAP
40
40
20
20
20
50
90
90
E4
C4
78
ENDCHAR
STARTCHAR eacute
ENCODING 233
SWIDTH 407 0
DWIDTH 6 0
BBX 6 11 0 0
BITMAP
08
10
10
20
20
50
90
90
E4
C4
78
ENDCHAR
STARTCHAR ecircumflex
ENCODING 234
SWIDTH 407 0
DWIDTH 6 0
BBX 6 10 0 0
BITMAP
30
70
48
20
50
90
90
E4
C4
78
ENDCHAR
STARTCHAR edieresis
ENCODING 235
SWIDTH 407 0
DWIDTH 6 0
BBX 6 9 0 0
BITMAP
58
00
20
50
90
90
E4
C4
78
ENDCHAR
STARTCHAR igrave
ENCODING 236
SWIDTH 281 0
DWIDTH 4 0
BBX 5 11 -1 0
BITMAP
80
80
40
40
00
40
40
40
48
48
38
ENDCHAR
STARTCHAR iacute
ENCODING 237
SWIDTH 281 0
DWIDTH 4 0
BBX 4 11 0 0
BITMAP
20
40
40
80
00
80
80
80
90
90
70
ENDCHAR
STARTCHAR icircumflex
ENCODING 238
SWIDTH 281 0
DWIDTH 4 0
BBX 6 10 -2 0
BITMAP
20
70
C8
00
20
20
20
24
24
1C
ENDCHAR
STARTCHAR idieresis
ENCODING 239
SWIDTH 281 0
DWIDTH 4 0
BBX 5 9 -1 0
BITMAP
A0
00
00
40
40
40
48
48
38
ENDCHAR
STARTCHAR eth
ENCODING 240
SWIDTH 633 0
DWIDTH 9 0
BBX 7 12 1 -1
BITMAP
8C
78
18
2C
44
36
CE
86
82
86
84
78
ENDCHAR
STARTCHAR ntilde
ENCODING 241
SWIDTH 528 0
DWIDTH 7 0
BBX 8 9 0 0
BITMAP
68
98
00
F8
88
88
89
89
8E
ENDCHAR
STARTCHAR ograve
ENCODING 242
SWIDTH 472 0
DWIDTH 7 0
BBX 6 11 0 0
BITMAP
40
60
20
30
20
58
C8
AC
9C
C8
70
ENDCHAR
STARTCHAR oacute
ENCODING 243
SWIDTH 472 0
DWIDTH 7 0
BBX 6 11 0 0
BITMAP
08
10
10
20
20
58
C8
AC
9C
C8
70
ENDCHAR
STARTCHAR ocircumflex
ENCODING 244
SWIDTH 472 0
DWIDTH 7 0
BBX 6 10 0 0
BITMAP
30
70
48
20
58
C8
AC
9C
C8
70
ENDCHAR
STARTCHAR otilde
ENCODING 245
SWIDTH 472 0
DWIDTH 7 0
BBX 6 9 0 0
BITMAP
68
98
20
58
C8
AC
9C
C8
70
ENDCHAR
STARTCHAR odieresis
ENCODING 246
SWIDTH 472 0
DWIDTH 7 0
BBX 6 9 0 0
BITMAP
78
00
20
58
C8
AC
9C
C8
70
ENDCHAR
STARTCHAR divide
ENCODING 247
SWIDTH 157 0
DWIDTH 2 0
BBX 6 6 -2 0
BITMAP
20
00
FC
00
00
20
ENDCHAR
STARTCHAR oslash
ENCODING 248
SWIDTH 492 0
DWIDTH 7 0
BBX 6 9 0 -1
BITMAP
08
28
58
98
AC
AC
C8
70
40
ENDCHAR
STARTCHAR ugrave
ENCODING 249
SWIDTH 527 0
DWIDTH 7 0
BBX 8 11 0 0
BITMAP
C0
40
60
20
00
88
88
88
89
99
6E
ENDCHAR
STARTCHAR uacute
ENCODING 250
SWIDTH 527 0
DWIDTH 7 0
BBX 8 11 0 0
BITMAP
18
10
30
20
00
88
88
88
89
99
6E
ENDCHAR
STARTCHAR ucircumflex
ENCODING 251
SWIDTH 527 0
DWIDTH 7 0
BBX 8 10 0 0
BITMAP
20
50
C8
00
88
88
88
89
99
6E
ENDCHAR
STARTCHAR udieresis
ENCODING 252
SWIDTH 527 0
DWIDTH 7 0
BBX 8 9 0 0
BITMAP
50
00
00
88
88
88
89
99
6E
ENDCHAR
STARTCHAR yacute
ENCODING 253
SWIDTH 487 0
DWIDTH 7 0
BBX 6 17 0 -6
BITMAP
08
10
30
20
00
88
88
88
88
98
68
08
1C
28
48
48
70
ENDCHAR
STARTCHAR thorn
ENCODING 254
SWIDTH 469 0
DWIDTH 7 0
BBX 5 17 1 -6
BITMAP
80
80
80
80
80
F0
98
98
98
90
F0
80
80
80
80
80
80
ENDCHAR
STARTCHAR ydieresis
ENCODING 255
SWIDTH 487 0
DWIDTH 7 0
BBX 6 15 0 -6
BITMAP
50
00
00
88
88
88
88
98
68
08
1C
28
48
48
70
ENDCHAR
STARTCHAR Lslash
ENCODING 321
SWIDTH 500 0
DWIDTH 7 0
BBX 11 13 -3 -1
BITMAP
0E00
1A00
1200
3C00
1000
1C00
1800
7000
1000
7020
9820
9C40
6380
ENDCHAR
STARTCHAR lslash
ENCODING 322
SWIDTH 279 0
DWIDTH 4 0
BBX 6 12 -2 0
BITMAP
18
28
28
28
30
34
38
30
E0
24
24
1C
ENDCHAR
STARTCHAR OE
ENCODING 338
SWIDTH 1384 0
DWIDTH 19 0
BBX 16 12 2 -1
BITMAP
1E78
63C4
5984
A080
C0C0
4070
40C0
4181
4181
2182
31C6
0E7C
ENDCHAR
STARTCHAR oe
ENCODING 339
SWIDTH 899 0
DWIDTH 13 0
BBX 10 7 3 0
BITMAP
2200
DD00
C900
E900
9E40
8C40
7780
ENDCHAR
STARTCHAR Scaron
ENCODING 352
SWIDTH 593 0
DWIDTH 8 0
BBX 8 16 0 -1
BITMAP
24
34
18
18
00
3E
42
42
60
3C
0E
03
83
C3
42
3C
ENDCHAR
STARTCHAR scaron
ENCODING 353
SWIDTH 428 0
DWIDTH 6 0
BBX 6 11 -1 0
BITMAP
24
38
18
00
00
78
64
38
8C
44
38
ENDCHAR
STARTCHAR Ydieresis
ENCODING 376
SWIDTH 670 0
DWIDTH 9 0
BBX 7 18 1 -6
BITMAP
28
00
82
82
82
82
82
82
82
82
46
3A
0E
12
22
22
12
0C
ENDCHAR
STARTCHAR Zcaron
ENCODING 381
SWIDTH 833 0
DWIDTH 12 0
BBX 11 16 0 -1
BITMAP
0900
0B00
0600
0400
3800
46C0
4100
0100
0200
0200
0400
0420
6820
9820
6C20
03C0
ENDCHAR
STARTCHAR zcaron
ENCODING 382
SWIDTH 456 0
DWIDTH 6 0
BBX 7 17 0 -6
BITMAP
48
38
30
00
00
FC
88
88
10
10
30
08
3E
48
88
88
70
ENDCHAR
STARTCHAR florin
ENCODING 402
SWIDTH 280 0
DWIDTH 4 0
BBX 6 18 -3 -6
BITMAP
0C
14
14
14
18
18
10
10
10
10
10
10
10
10
10
90
90
60
ENDCHAR
STARTCHAR circumflex
ENCODING 710
SWIDTH 280 0
DWIDTH 4 0
BBX 4 3 0 7
BITMAP
60
E0
90
ENDCHAR
STARTCHAR caron
ENCODING 711
SWIDTH 283 0
DWIDTH 4 0
BBX 4 3 0 8
BITMAP
90
E0
60
ENDCHAR
STARTCHAR breve
ENCODING 728
SWIDTH 366 0
DWIDTH 5 0
BBX 5 3 0 8
BITMAP
88
88
70
ENDCHAR
STARTCHAR dotaccent
ENCODING 729
SWIDTH 274 0
DWIDTH 4 0
BBX 2 1 1 8
BITMAP
C0
ENDCHAR
STARTCHAR ring
ENCODING 730
SWIDTH 360 0
DWIDTH 5 0
BBX 3 3 1 8
BITMAP
40
A0
E0
ENDCHAR
STARTCHAR ogonek
ENCODING 731
SWIDTH 234 0
DWIDTH 3 0
BBX 3 3 0 -3
BITMAP
40
80
60
ENDCHAR
STARTCHAR tilde
ENCODING 732
SWIDTH 393 0
DWIDTH 6 0
BBX 5 2 0 7
BITMAP
68
98
ENDCHAR
STARTCHAR hungarumlaut
ENCODING 733
SWIDTH 347 0
DWIDTH 5 0
BBX 5 4 0 7
BITMAP
68
48
D0
90
ENDCHAR
STARTCHAR mu.dup1
ENCODING 956
SWIDTH 493 0
DWIDTH 7 0
BBX 5 12 1 -6
BITMAP
88
88
88
88
98
E8
80
80
80
80
80
80
ENDCHAR
STARTCHAR endash
ENCODING 8211
SWIDTH 543 0
DWIDTH 8 0
BBX 6 1 1 3
BITMAP
FC
ENDCHAR
STARTCHAR emdash
ENCODING 8212
SWIDTH 633 0
DWIDTH 9 0
BBX 8 1 0 3
BITMAP
FF
ENDCHAR
STARTCHAR quoteleft
ENCODING 8216
SWIDTH 178 0
DWIDTH 2 0
BBX 2 3 0 9
BITMAP
80
C0
40
ENDCHAR
STARTCHAR quoteright
ENCODING 8217
SWIDTH 198 0
DWIDTH 3 0
BBX 1 2 1 10
BITMAP
80
80
ENDCHAR
STARTCHAR quotesinglbase
ENCODING 8218
SWIDTH 181 0
DWIDTH 3 0
BBX 1 2 1 -1
BITMAP
80
80
ENDCHAR
STARTCHAR quotedblleft
ENCODING 8220
SWIDTH 444 0
DWIDTH 6 0
BBX 4 2 0 10
BITMAP
B0
50
ENDCHAR
STARTCHAR quotedblright
ENCODING 8221
SWIDTH 337 0
DWIDTH 5 0
BBX 3 2 1 10
BITMAP
A0
A0
ENDCHAR
STARTCHAR quotedblbase
ENCODING 8222
SWIDTH 363 0
DWIDTH 5 0
BBX 4 2 1 -1
BITMAP
B0
90
ENDCHAR
STARTCHAR dagger
ENCODING 8224
SWIDTH 354 0
DWIDTH 5 0
BBX 6 17 -2 -6
BITMAP
20
20
20
20
20
FC
20
20
20
20
20
20
20
20
20
20
20
ENDCHAR
STARTCHAR daggerdbl
ENCODING 8225
SWIDTH 354 0
DWIDTH 5 0
BBX 6 17 -2 -6
BITMAP
20
20
20
20
20
FC
20
20
20
20
FC
20
20
20
20
20
20
ENDCHAR
STARTCHAR bullet
ENCODING 8226
SWIDTH 332 0
DWIDTH 5 0
BBX 3 3 1 3
BITMAP
E0
E0
E0
ENDCHAR
STARTCHAR ellipsis
ENCODING 8230
SWIDTH 409 0
DWIDTH 6 0
BBX 5 1 0 0
BITMAP
A8
ENDCHAR
STARTCHAR perthousand
ENCODING 8240
SWIDTH 1320 0
DWIDTH 18 0
BBX 17 11 0 0
BITMAP
70C000
488000
C98000
490000
330000
020000
06E700
053480
0D1880
093480
18E700
ENDCHAR
STARTCHAR guilsinglleft
ENCODING 8249
SWIDTH 833 0
DWIDTH 12 0
BBX 5 7 1 0
BITMAP
08
30
60
C0
60
30
08
ENDCHAR
STARTCHAR guilsinglright
ENCODING 8250
SWIDTH 433 0
DWIDTH 6 0
BBX 5 7 1 0
BITMAP
80
60
30
18
30
60
80
ENDCHAR
STARTCHAR fraction
ENCODING 8260
SWIDTH 218 0
DWIDTH 3 0
BBX 6 10 0 0
BITMAP
0C
08
18
10
30
20
20
40
40
80
ENDCHAR
STARTCHAR Euro
ENCODING 8364
SWIDTH 833 0
DWIDTH 12 0
BBX 8 10 -1 0
BITMAP
0E
31
60
F8
40
40
F8
60
20
1F
ENDCHAR
STARTCHAR trademark
ENCODING 8482
SWIDTH 1016 0
DWIDTH 14 0
BBX 15 7 -1 3
BITMAP
6200
BED0
5528
1128
112A
552E
3200
ENDCHAR
STARTCHAR notequal
ENCODING 8800
SWIDTH 670 0
DWIDTH 9 0
BBX 6 7 2 1
BITMAP
10
10
FC
20
FC
40
80
ENDCHAR
STARTCHAR fi
ENCODING 64257
SWIDTH 561 0
DWIDTH 8 0
BBX 8 18 0 -6
BITMAP
60
A0
A8
A8
C0
C8
B8
88
88
89
89
86
80
80
80
80
80
80
ENDCHAR
STARTCHAR fl
ENCODING 64258
SWIDTH 559 0
DWIDTH 8 0
BBX 8 18 0 -6
BITMAP
66
AA
AA
AA
CC
CC
B8
88
88
89
89
86
80
80
80
80
80
80
ENDCHAR
STARTCHAR .notdef
ENCODING -1
SWIDTH 354 0
DWIDTH 5 0
BBX 1 1 0 0
BITMAP
00
ENDCHAR
STARTCHAR quotesinglbase.001
ENCODING -1
SWIDTH 198 0
DWIDTH 3 0
BBX 2 4 0 -2
BITMAP
C0
C0
40
C0
ENDCHAR
ENDFONT
